<?xml version="1.0" encoding="utf-8" ?>
<svg baseProfile="full" height="1024" version="1.1" width="1024" xmlns="http://www.w3.org/2000/svg" xmlns:ev="http://www.w3.org/2001/xml-events" xmlns:xlink="http://www.w3.org/1999/xlink"><defs /><path d="M 417,606 L 417,607 L 416,608 L 416,610 L 415,611 L 415,612 L 414,613 L 414,614 L 413,615 L 413,616 L 412,617 L 412,618 L 410,620 L 410,621 L 408,623 L 408,624 L 406,626 L 406,627 L 403,630 L 403,631 L 401,633 L 401,634 L 398,637 L 398,638 L 394,642 L 394,643 L 389,648 L 389,649 L 382,656 L 382,657 L 381,658 L 381,659 L 380,660 L 380,662 L 381,663 L 381,665 L 382,666 L 382,667 L 383,668 L 383,670 L 384,671 L 384,672 L 385,673 L 385,675 L 386,676 L 386,678 L 387,679 L 387,681 L 388,682 L 388,685 L 389,686 L 389,690 L 390,691 L 390,697 L 391,698 L 391,717 L 392,718 L 392,727 L 393,728 L 393,731 L 394,732 L 394,733 L 395,734 L 395,735 L 398,738 L 399,738 L 400,739 L 403,739 L 404,740 L 490,740 L 491,739 L 492,740 L 493,740 L 493,736 L 492,735 L 492,733 L 491,732 L 491,730 L 490,729 L 490,728 L 489,727 L 489,726 L 488,725 L 488,724 L 486,722 L 486,721 L 481,716 L 480,716 L 479,715 L 478,715 L 476,713 L 474,713 L 473,712 L 471,712 L 470,711 L 468,711 L 467,710 L 463,710 L 462,709 L 460,709 L 459,708 L 458,708 L 456,706 L 456,705 L 455,704 L 455,698 L 456,697 L 456,683 L 457,682 L 457,670 L 458,669 L 458,656 L 459,655 L 459,635 L 458,634 L 458,628 L 457,627 L 457,623 L 456,622 L 456,619 L 455,618 L 455,616 L 454,615 L 454,614 L 453,613 L 453,611 L 452,610 L 443,610 L 442,609 L 433,609 L 432,608 L 426,608 L 425,607 L 420,607 L 419,606 Z" fill="black" /><path d="M 555,591 L 555,600 L 554,601 L 554,612 L 553,613 L 553,620 L 552,621 L 552,627 L 551,628 L 551,633 L 550,634 L 550,639 L 549,640 L 549,644 L 548,645 L 548,650 L 547,651 L 547,654 L 546,655 L 546,659 L 545,660 L 545,664 L 544,665 L 544,668 L 543,669 L 543,671 L 542,672 L 542,675 L 541,676 L 541,678 L 540,679 L 540,681 L 539,682 L 539,683 L 538,684 L 538,686 L 537,687 L 537,688 L 536,689 L 536,690 L 535,691 L 535,692 L 533,694 L 533,695 L 531,697 L 531,698 L 528,701 L 528,702 L 522,708 L 522,709 L 519,712 L 519,713 L 517,715 L 517,716 L 516,717 L 516,719 L 515,720 L 515,722 L 514,723 L 514,730 L 515,731 L 515,734 L 516,735 L 516,736 L 518,738 L 519,738 L 520,739 L 522,739 L 523,740 L 567,740 L 568,739 L 572,739 L 577,734 L 577,733 L 578,732 L 578,731 L 579,730 L 579,728 L 580,727 L 580,725 L 581,724 L 581,722 L 582,721 L 582,719 L 583,718 L 583,716 L 584,715 L 584,713 L 585,712 L 585,710 L 586,709 L 586,707 L 587,706 L 587,704 L 588,703 L 588,700 L 589,699 L 589,697 L 590,696 L 590,694 L 591,693 L 591,692 L 592,691 L 592,689 L 593,688 L 593,686 L 594,685 L 594,683 L 595,682 L 595,681 L 596,680 L 596,678 L 597,677 L 597,675 L 598,674 L 598,673 L 599,672 L 599,670 L 600,669 L 600,667 L 601,666 L 601,664 L 602,663 L 602,657 L 601,656 L 601,655 L 600,654 L 600,653 L 597,650 L 597,649 L 594,646 L 594,645 L 591,642 L 591,641 L 588,638 L 588,637 L 584,633 L 584,632 L 580,628 L 580,627 L 577,624 L 577,623 L 574,620 L 574,619 L 571,616 L 571,615 L 568,612 L 568,611 L 566,609 L 566,608 L 563,605 L 563,604 L 561,602 L 561,601 L 559,599 L 559,598 L 558,597 L 558,596 L 556,594 L 556,593 L 555,592 Z" fill="black" /><path d="M 643,209 L 642,210 L 637,210 L 636,211 L 634,211 L 633,212 L 631,212 L 630,213 L 628,213 L 627,214 L 626,214 L 625,215 L 624,215 L 623,216 L 622,216 L 621,217 L 620,217 L 619,218 L 618,218 L 616,220 L 615,220 L 613,222 L 612,222 L 610,224 L 609,224 L 607,226 L 606,226 L 602,230 L 601,230 L 597,234 L 596,234 L 579,251 L 579,252 L 572,259 L 572,260 L 567,265 L 567,266 L 562,271 L 562,272 L 558,276 L 558,277 L 554,281 L 554,282 L 546,290 L 545,290 L 544,291 L 543,291 L 542,292 L 540,292 L 539,293 L 538,293 L 537,294 L 535,294 L 534,295 L 533,295 L 532,296 L 531,296 L 530,297 L 529,297 L 528,298 L 527,298 L 526,299 L 525,299 L 524,300 L 523,300 L 522,301 L 521,301 L 520,302 L 519,302 L 518,303 L 517,303 L 515,305 L 514,305 L 513,306 L 512,306 L 510,308 L 509,308 L 507,310 L 506,310 L 503,313 L 502,313 L 498,317 L 497,317 L 478,336 L 478,337 L 471,344 L 471,345 L 465,351 L 465,352 L 459,358 L 459,359 L 454,364 L 454,365 L 449,370 L 449,371 L 437,383 L 436,383 L 433,386 L 432,386 L 431,387 L 430,387 L 429,388 L 428,388 L 427,389 L 426,389 L 425,390 L 424,390 L 423,391 L 422,391 L 421,392 L 419,392 L 418,393 L 416,393 L 415,394 L 411,394 L 410,395 L 406,395 L 405,396 L 370,396 L 369,397 L 361,397 L 360,398 L 354,398 L 353,399 L 350,399 L 349,400 L 346,400 L 345,401 L 343,401 L 342,402 L 339,402 L 338,403 L 337,403 L 336,404 L 334,404 L 333,405 L 332,405 L 331,406 L 329,406 L 328,407 L 327,407 L 326,408 L 325,408 L 324,409 L 323,409 L 322,410 L 321,410 L 320,411 L 319,411 L 318,412 L 317,412 L 315,414 L 314,414 L 313,415 L 312,415 L 310,417 L 309,417 L 306,420 L 305,420 L 301,424 L 300,424 L 289,435 L 289,436 L 285,440 L 285,441 L 282,444 L 282,445 L 280,447 L 280,448 L 279,449 L 279,450 L 278,451 L 278,452 L 276,454 L 276,455 L 275,456 L 275,457 L 274,458 L 274,459 L 273,460 L 273,462 L 272,463 L 272,464 L 271,465 L 271,467 L 270,468 L 270,470 L 269,471 L 269,473 L 268,474 L 268,476 L 267,477 L 267,480 L 266,481 L 266,485 L 265,486 L 265,492 L 264,493 L 264,510 L 265,511 L 265,517 L 266,518 L 266,521 L 267,522 L 267,525 L 268,526 L 268,528 L 269,529 L 269,531 L 270,532 L 270,534 L 271,535 L 271,537 L 272,538 L 272,540 L 273,541 L 273,542 L 274,543 L 274,545 L 275,546 L 275,548 L 276,549 L 276,554 L 277,555 L 277,559 L 276,560 L 276,568 L 275,569 L 275,572 L 274,573 L 274,575 L 273,576 L 273,578 L 272,579 L 272,580 L 271,581 L 271,582 L 270,583 L 270,584 L 269,585 L 269,586 L 268,587 L 268,588 L 267,589 L 267,590 L 266,591 L 266,592 L 265,593 L 265,594 L 264,595 L 264,596 L 263,597 L 263,598 L 262,599 L 262,600 L 261,601 L 261,602 L 260,603 L 260,604 L 259,605 L 259,606 L 258,607 L 258,608 L 257,609 L 257,610 L 256,611 L 256,612 L 255,613 L 255,614 L 254,615 L 254,616 L 253,617 L 253,619 L 252,620 L 252,621 L 251,622 L 251,623 L 250,624 L 250,626 L 249,627 L 249,628 L 248,629 L 248,630 L 247,631 L 247,633 L 246,634 L 246,636 L 245,637 L 245,638 L 244,639 L 244,641 L 243,642 L 243,644 L 242,645 L 242,647 L 241,648 L 241,651 L 240,652 L 240,654 L 239,655 L 239,658 L 238,659 L 238,662 L 237,663 L 237,666 L 236,667 L 236,671 L 235,672 L 235,676 L 234,677 L 234,682 L 233,683 L 233,688 L 232,689 L 232,697 L 231,698 L 231,710 L 230,711 L 230,731 L 231,732 L 231,734 L 232,735 L 232,736 L 234,738 L 235,738 L 236,739 L 239,739 L 240,740 L 337,740 L 338,739 L 337,738 L 337,731 L 336,730 L 336,729 L 335,728 L 335,727 L 334,726 L 334,725 L 328,719 L 327,719 L 326,718 L 325,718 L 324,717 L 323,717 L 322,716 L 321,716 L 320,715 L 319,715 L 318,714 L 316,714 L 315,713 L 314,713 L 313,712 L 311,712 L 310,711 L 308,711 L 307,710 L 306,710 L 305,709 L 303,709 L 302,708 L 301,708 L 299,706 L 298,706 L 297,705 L 298,704 L 298,703 L 299,702 L 299,700 L 301,698 L 301,697 L 304,694 L 304,693 L 315,682 L 316,682 L 320,678 L 321,678 L 324,675 L 325,675 L 328,672 L 329,672 L 332,669 L 333,669 L 335,667 L 336,667 L 340,663 L 341,663 L 346,658 L 347,658 L 359,646 L 359,645 L 364,640 L 364,639 L 368,635 L 368,634 L 371,631 L 371,630 L 374,627 L 374,626 L 377,623 L 377,622 L 379,620 L 379,619 L 382,616 L 382,615 L 384,613 L 384,612 L 386,610 L 386,609 L 388,607 L 388,606 L 390,604 L 390,603 L 392,601 L 392,600 L 393,599 L 393,598 L 395,596 L 395,595 L 396,594 L 396,593 L 397,592 L 397,591 L 399,589 L 399,588 L 400,587 L 400,586 L 401,585 L 401,584 L 402,583 L 402,582 L 403,581 L 403,580 L 404,579 L 404,578 L 405,577 L 405,575 L 406,574 L 406,573 L 407,572 L 407,571 L 408,570 L 408,569 L 409,568 L 409,566 L 410,565 L 410,564 L 411,563 L 411,562 L 412,561 L 412,559 L 413,558 L 413,557 L 414,556 L 414,554 L 415,553 L 415,551 L 416,550 L 416,548 L 417,547 L 417,545 L 418,544 L 418,543 L 419,542 L 419,539 L 420,538 L 421,539 L 421,541 L 422,542 L 422,546 L 423,547 L 423,554 L 424,555 L 424,569 L 423,570 L 423,581 L 422,582 L 422,584 L 423,585 L 424,585 L 425,586 L 426,586 L 427,587 L 429,587 L 430,588 L 433,588 L 434,589 L 437,589 L 438,590 L 442,590 L 443,591 L 450,591 L 451,592 L 464,592 L 465,591 L 475,591 L 476,590 L 481,590 L 482,589 L 485,589 L 486,588 L 489,588 L 490,587 L 492,587 L 493,586 L 495,586 L 496,585 L 498,585 L 499,584 L 500,584 L 501,583 L 502,583 L 503,582 L 505,582 L 506,581 L 507,581 L 509,579 L 510,579 L 511,578 L 512,578 L 513,577 L 514,577 L 515,576 L 516,576 L 517,575 L 518,575 L 519,574 L 520,574 L 521,573 L 522,573 L 523,572 L 524,572 L 525,571 L 526,571 L 527,570 L 528,570 L 529,569 L 530,569 L 532,567 L 533,567 L 536,564 L 537,564 L 545,556 L 545,553 L 544,552 L 544,551 L 543,550 L 543,549 L 542,548 L 542,547 L 541,546 L 541,545 L 540,544 L 540,543 L 539,542 L 539,541 L 538,540 L 538,539 L 537,538 L 537,537 L 536,536 L 536,534 L 535,533 L 535,532 L 534,531 L 534,530 L 533,529 L 533,528 L 532,527 L 532,525 L 531,524 L 531,523 L 530,522 L 530,520 L 529,519 L 529,517 L 528,516 L 528,513 L 527,512 L 527,510 L 526,509 L 526,506 L 525,505 L 525,502 L 524,501 L 524,497 L 523,496 L 523,492 L 522,491 L 522,484 L 521,483 L 521,480 L 522,479 L 524,481 L 524,482 L 525,483 L 525,484 L 527,486 L 527,487 L 530,490 L 530,491 L 532,493 L 532,494 L 534,496 L 534,497 L 536,499 L 536,500 L 538,502 L 538,503 L 540,505 L 540,506 L 542,508 L 542,509 L 544,511 L 544,512 L 546,514 L 546,515 L 548,517 L 548,518 L 550,520 L 550,521 L 551,522 L 551,523 L 553,525 L 553,526 L 555,528 L 555,529 L 556,530 L 556,531 L 558,533 L 558,534 L 560,536 L 560,537 L 562,539 L 562,540 L 564,542 L 564,543 L 566,545 L 566,546 L 567,547 L 567,548 L 569,550 L 569,551 L 570,552 L 570,553 L 571,554 L 571,555 L 572,556 L 572,557 L 573,558 L 573,559 L 574,560 L 574,561 L 575,562 L 575,563 L 576,564 L 576,565 L 577,566 L 577,567 L 578,568 L 578,570 L 579,571 L 579,572 L 580,573 L 580,575 L 581,576 L 581,577 L 582,578 L 582,580 L 583,581 L 583,582 L 584,583 L 584,585 L 585,586 L 585,587 L 586,588 L 586,590 L 587,591 L 587,592 L 588,593 L 588,594 L 589,595 L 589,597 L 590,598 L 590,599 L 591,600 L 591,601 L 592,602 L 592,603 L 593,604 L 593,605 L 594,606 L 594,607 L 595,608 L 595,609 L 596,610 L 596,611 L 597,612 L 597,613 L 598,614 L 598,615 L 599,616 L 599,617 L 601,619 L 601,620 L 602,621 L 602,622 L 604,624 L 604,625 L 605,626 L 605,627 L 607,629 L 607,630 L 609,632 L 609,633 L 612,636 L 612,637 L 615,640 L 615,641 L 618,644 L 618,645 L 622,649 L 622,650 L 627,655 L 627,656 L 633,662 L 633,663 L 637,667 L 637,668 L 640,671 L 640,672 L 642,674 L 642,675 L 644,677 L 644,678 L 645,679 L 645,680 L 646,681 L 646,682 L 647,683 L 647,684 L 648,685 L 648,687 L 649,688 L 649,689 L 650,690 L 650,693 L 651,694 L 651,699 L 652,700 L 652,718 L 653,719 L 653,726 L 654,727 L 654,730 L 655,731 L 655,732 L 656,733 L 656,734 L 660,738 L 661,738 L 662,739 L 664,739 L 665,740 L 729,740 L 730,739 L 732,739 L 735,736 L 735,735 L 736,734 L 736,728 L 735,727 L 735,726 L 734,725 L 734,724 L 733,723 L 733,722 L 719,708 L 719,707 L 717,705 L 717,704 L 716,703 L 716,701 L 715,700 L 715,696 L 714,695 L 714,681 L 713,680 L 714,679 L 714,678 L 713,677 L 713,669 L 714,668 L 714,660 L 713,659 L 713,655 L 714,654 L 714,653 L 713,652 L 713,624 L 712,623 L 712,614 L 711,613 L 711,606 L 710,605 L 710,600 L 709,599 L 709,594 L 708,593 L 708,589 L 707,588 L 707,585 L 706,584 L 706,580 L 705,579 L 705,576 L 704,575 L 704,573 L 703,572 L 703,569 L 702,568 L 702,566 L 701,565 L 701,563 L 700,562 L 700,560 L 699,559 L 699,557 L 698,556 L 698,554 L 697,553 L 697,552 L 696,551 L 696,549 L 695,548 L 695,547 L 694,546 L 694,544 L 693,543 L 693,542 L 692,541 L 692,540 L 691,539 L 691,537 L 690,536 L 690,535 L 689,534 L 689,533 L 688,532 L 688,531 L 687,530 L 687,529 L 686,528 L 686,527 L 685,526 L 685,524 L 684,523 L 684,522 L 683,521 L 683,520 L 682,519 L 682,518 L 681,517 L 681,516 L 680,515 L 680,514 L 679,513 L 679,512 L 678,511 L 678,510 L 677,509 L 677,508 L 676,507 L 676,506 L 675,505 L 675,504 L 674,503 L 674,501 L 673,500 L 673,499 L 672,498 L 672,496 L 671,495 L 671,492 L 670,491 L 670,488 L 669,487 L 669,477 L 668,476 L 668,464 L 667,463 L 667,455 L 666,454 L 666,448 L 665,447 L 665,441 L 664,440 L 664,435 L 663,434 L 663,430 L 662,429 L 662,425 L 661,424 L 661,420 L 660,419 L 660,416 L 659,415 L 659,412 L 658,411 L 658,408 L 657,407 L 657,405 L 656,404 L 656,401 L 655,400 L 655,398 L 654,397 L 654,395 L 653,394 L 653,392 L 652,391 L 652,389 L 651,388 L 651,386 L 650,385 L 650,384 L 649,383 L 649,381 L 648,380 L 648,379 L 647,378 L 647,377 L 646,376 L 646,374 L 645,373 L 645,372 L 644,371 L 644,370 L 642,368 L 642,367 L 641,366 L 641,365 L 640,364 L 640,363 L 638,361 L 638,360 L 636,358 L 636,357 L 633,354 L 633,353 L 624,344 L 625,343 L 626,343 L 627,344 L 628,344 L 629,345 L 630,345 L 632,347 L 633,347 L 635,349 L 636,349 L 640,353 L 641,353 L 649,361 L 649,362 L 653,366 L 653,367 L 655,369 L 655,370 L 657,372 L 657,373 L 659,375 L 659,376 L 660,377 L 660,378 L 661,379 L 661,380 L 662,381 L 662,382 L 663,383 L 663,384 L 664,385 L 664,386 L 665,387 L 665,388 L 666,389 L 666,390 L 667,391 L 667,392 L 668,393 L 668,395 L 669,396 L 669,397 L 670,398 L 670,399 L 671,400 L 671,402 L 672,403 L 672,404 L 673,405 L 673,406 L 674,407 L 674,409 L 675,410 L 675,411 L 677,413 L 677,414 L 678,415 L 678,416 L 687,425 L 688,425 L 690,427 L 691,427 L 692,428 L 693,428 L 694,429 L 696,429 L 697,430 L 699,430 L 700,431 L 718,431 L 719,430 L 723,430 L 724,429 L 727,429 L 728,428 L 731,428 L 732,427 L 734,427 L 735,426 L 736,426 L 737,425 L 738,425 L 739,424 L 740,424 L 741,423 L 742,423 L 743,422 L 744,422 L 746,420 L 747,420 L 757,410 L 757,409 L 759,407 L 759,406 L 761,404 L 761,403 L 762,402 L 762,400 L 763,399 L 763,397 L 764,396 L 764,388 L 765,387 L 765,385 L 764,384 L 764,374 L 763,373 L 763,369 L 762,368 L 762,366 L 761,365 L 761,362 L 760,361 L 760,359 L 759,358 L 759,357 L 758,356 L 758,354 L 757,353 L 757,352 L 756,351 L 756,350 L 754,348 L 754,347 L 753,346 L 753,345 L 745,337 L 744,337 L 742,335 L 741,335 L 740,334 L 738,334 L 737,333 L 735,333 L 734,332 L 725,332 L 724,333 L 722,333 L 720,335 L 719,335 L 718,336 L 718,337 L 716,339 L 716,340 L 715,341 L 715,342 L 714,343 L 712,343 L 711,342 L 709,342 L 708,341 L 707,341 L 706,340 L 705,340 L 704,339 L 703,339 L 702,338 L 701,338 L 695,332 L 695,330 L 694,329 L 694,323 L 695,322 L 695,321 L 699,317 L 709,317 L 710,318 L 715,318 L 716,319 L 733,319 L 734,318 L 737,318 L 738,317 L 740,317 L 741,316 L 742,316 L 743,315 L 744,315 L 745,314 L 746,314 L 749,311 L 749,310 L 750,309 L 750,307 L 751,306 L 751,297 L 750,296 L 750,295 L 749,294 L 749,293 L 743,287 L 742,287 L 740,285 L 739,285 L 737,283 L 736,283 L 734,281 L 733,281 L 730,278 L 729,278 L 717,266 L 717,265 L 712,260 L 712,259 L 709,256 L 709,255 L 706,252 L 706,251 L 704,249 L 704,248 L 701,245 L 701,244 L 699,242 L 699,241 L 696,238 L 696,237 L 693,234 L 693,233 L 687,227 L 687,226 L 684,223 L 683,223 L 679,219 L 678,219 L 676,217 L 675,217 L 674,216 L 673,216 L 672,215 L 671,215 L 670,214 L 669,214 L 668,213 L 667,213 L 666,212 L 664,212 L 663,211 L 661,211 L 660,210 L 656,210 L 655,209 Z" fill="black" /></svg>